<svg viewBox="0 0 24 24" xml:space="preserve" xmlns="http://www.w3.org/2000/svg"><path d="M12 0C5.383 0 0 5.383 0 12s5.383 12 12 12 12-5.383 12-12S18.617 0 12 0zm0 23C5.935 23 1 18.065 1 12S5.935 1 12 1s11 4.935 11 11-4.935 11-11 11z" fill="#ffffff" class="fill-676767"></path><path d="M2.84 8A9.934 9.934 0 0 0 2 12c0 4.049 2.423 7.536 5.892 9.107L3.277 8H2.84zM8 7.5a.5.5 0 0 1-.5.5h-.288l2.803 8.697a398.372 398.372 0 0 0 1.445-4.18L9.87 8H9.5a.5.5 0 1 1 0-1H14a.5.5 0 1 1 0 1h-.196l2.804 8.697a342.823 342.823 0 0 0 1.608-4.666c.192-.96-.553-2.165-1.214-3.235-.514-.833-.959-1.552-.959-2.166 0-1.872 1.09-2.152 1.74-2.152.391 0 .75.105 1.078.266A9.955 9.955 0 0 0 12 2C8.308 2 5.085 4.016 3.353 7H7.5a.5.5 0 0 1 .5.5z" fill="#ffffff" class="fill-676767"></path><path d="M9.331 21.628A9.952 9.952 0 0 0 12 22a9.95 9.95 0 0 0 2.668-.372l-2.671-7.586a784.558 784.558 0 0 1-2.666 7.586zM20.123 6.19c.409 1.278-.093 3.456-.624 5.135-.087.274-.194.602-.317.97-.012.05-.025.101-.04.151a.492.492 0 0 1-.047.11c-.851 2.539-2.321 6.686-2.985 8.55C19.578 19.535 22 16.048 22 12c0-2.168-.7-4.17-1.877-5.81z" fill="#ffffff" class="fill-676767"></path><linearGradient gradientUnits="userSpaceOnUse" id="a" x1="1.125" x2="22.875" y1="6.929" y2="17.071"><stop offset="0" stop-color="#ffffff" stop-opacity=".2" class="stop-color-ffffff"></stop><stop offset="1" stop-color="#ffffff" stop-opacity="0" class="stop-color-ffffff"></stop></linearGradient><path d="M12 0C5.383 0 0 5.383 0 12s5.383 12 12 12 12-5.383 12-12S18.617 0 12 0z" fill="url(#a)" class="fillurl(-a)"></path></svg>