<svg viewBox="0 0 48 48" xml:space="preserve" xmlns="http://www.w3.org/2000/svg"><g fill="#ffffff" class="fill-241f20"><path d="M22.069 16.379c.234-.312.377-.696.377-1.116a1.872 1.872 0 0 0-3.589-.748s-1.226 1.742-2.125 6.921c-.39 2.266-.806 4.625-.806 4.625-1.11-2.266-1.851-7.261-2.267-8.185-1.942-1.988-3.145.647-3.145.647l-1.579 2.952-3.185 5.788-2.11-11.524a1.825 1.825 0 0 0-3.623.31c0 .157.025.306.063.451.271 1.921 1.375 9.55 2.342 12.891 1.066 3.688 2.221 7.185 4.4 3.93l.004.008.065-.115c.067-.103.132-.191.201-.308.129-.219.233-.427.329-.632.963-1.725 2.872-5.211 3.972-7.692 0 0 1.665 5.642 4.301 8.509 2.636 2.866 3.468.555 3.653 0 .046-.972.265-12.702 2.723-16.709l-.001-.003zM27.444 15.798l-.002-.004s-.055.015-.133.04l-.048.015-.048.017c-.269.088-.494.19-.651.292l-.002.002c-1.442.762-4.207 2.988-4.715 9.021.127 4.428 2.536 6.046 4.024 6.626.011.004.227.104.594.192.342.093.562.118.562.118l.001-.019c1.279.155 3.396-.092 5.271-2.709 2.914-4.07 2.637-9.158.486-11.816-1.685-2.084-3.979-2.138-5.339-1.775zm.202 12.501c-.437.023-.699-.162-.777-.231-.618-.565-1.717-1.962-1.276-4.504.449-2.597 2.015-3.612 2.771-3.958.224-.092.714-.214 1.258.16.475.353.984 1.098 1.058 2.688.129 2.869-.979 5.466-3.034 5.845zM46.326 17.574c-1.687-2.085-3.98-2.14-5.339-1.776l-.003-.004s-.054.015-.132.04l-.048.015a.917.917 0 0 0-.048.017c-.269.088-.494.19-.652.292 0 .001 0 .002-.002.002-1.441.762-4.206 2.988-4.715 9.021.128 4.428 2.536 6.046 4.023 6.626.011.004.228.104.594.192.343.093.563.118.563.118V32.1c1.279.155 3.397-.092 5.272-2.709 2.915-4.071 2.638-9.158.487-11.817zm-5.138 10.725c-.438.023-.7-.162-.778-.231-.618-.565-1.717-1.962-1.276-4.504.45-2.597 2.016-3.612 2.772-3.958.223-.092.713-.214 1.257.16.475.353.984 1.098 1.059 2.688.13 2.869-.979 5.466-3.034 5.845z"></path></g></svg>