<svg viewBox="0 0 512 512" xml:space="preserve" xmlns="http://www.w3.org/2000/svg" fill-rule="evenodd" clip-rule="evenodd" stroke-linejoin="round" stroke-miterlimit="2"><path d="M449.446 0C483.971 0 512 28.03 512 62.554v386.892C512 483.97 483.97 512 449.446 512H62.554C28.03 512 0 483.97 0 449.446V62.554C0 28.03 28.029 0 62.554 0h386.892ZM195.519 424.544c135.939 0 210.268-112.643 210.268-210.268 0-3.218 0-6.437-.153-9.502 14.406-10.421 26.973-23.448 36.935-38.314-13.18 5.824-27.433 9.809-42.452 11.648 15.326-9.196 26.973-23.602 32.49-40.92-14.252 8.429-30.038 14.56-46.896 17.931-13.487-14.406-32.644-23.295-53.946-23.295-40.767 0-73.87 33.104-73.87 73.87 0 5.824.613 11.494 1.992 16.858-61.456-3.065-115.862-32.49-152.337-77.241-6.284 10.881-9.962 23.601-9.962 37.088a73.57 73.57 0 0 0 32.95 61.456c-12.107-.307-23.448-3.678-33.41-9.196v.92c0 35.862 25.441 65.594 59.311 72.49a73.66 73.66 0 0 1-19.464 2.606c-4.751 0-9.348-.46-13.946-1.38 9.349 29.426 36.628 50.728 68.965 51.341-25.287 19.771-57.164 31.571-91.8 31.571-5.977 0-11.801-.306-17.625-1.073 32.337 21.15 71.264 33.41 112.95 33.41Z" fill="#ffffff" class="fill-000000 fill-bfbfbf"></path></svg>