<?xml version="1.0" encoding="UTF-8"?>
<svg width="700pt" height="700pt" version="1.1" viewBox="0 0 700 700" xmlns="http://www.w3.org/2000/svg">
 <path d="m201.25 105c-14.391 0-26.25 11.859-26.25 26.25v52.5c0 14.391 11.859 26.25 26.25 26.25h52.5c14.391 0 26.25-11.859 26.25-26.25v-52.5c0-14.391-11.859-26.25-26.25-26.25zm122.5 0c-14.391 0-26.25 11.859-26.25 26.25v52.5c0 14.391 11.859 26.25 26.25 26.25h52.5c14.391 0 26.25-11.859 26.25-26.25v-52.5c0-14.391-11.859-26.25-26.25-26.25zm122.5 0c-14.391 0-26.25 11.859-26.25 26.25v52.5c0 14.391 11.859 26.25 26.25 26.25h52.5c14.391 0 26.25-11.859 26.25-26.25v-52.5c0-14.391-11.859-26.25-26.25-26.25zm-245 122.5c-14.391 0-26.25 11.859-26.25 26.25v52.5c0 14.391 11.859 26.25 26.25 26.25h52.5c14.391 0 26.25-11.859 26.25-26.25v-52.5c0-14.391-11.859-26.25-26.25-26.25zm122.5 0c-14.391 0-26.25 11.859-26.25 26.25v52.5c0 14.391 11.859 26.25 26.25 26.25h52.5c14.391 0 26.25-11.859 26.25-26.25v-52.5c0-14.391-11.859-26.25-26.25-26.25zm122.5 0c-14.391 0-26.25 11.859-26.25 26.25v52.5c0 14.391 11.859 26.25 26.25 26.25h52.5c14.391 0 26.25-11.859 26.25-26.25v-52.5c0-14.391-11.859-26.25-26.25-26.25zm-245 122.5c-14.391 0-26.25 11.859-26.25 26.25v52.5c0 14.391 11.859 26.25 26.25 26.25h52.5c14.391 0 26.25-11.859 26.25-26.25v-52.5c0-14.391-11.859-26.25-26.25-26.25zm122.5 0c-14.391 0-26.25 11.859-26.25 26.25v52.5c0 14.391 11.859 26.25 26.25 26.25h52.5c14.391 0 26.25-11.859 26.25-26.25v-52.5c0-14.391-11.859-26.25-26.25-26.25zm122.5 0c-14.391 0-26.25 11.859-26.25 26.25v52.5c0 14.391 11.859 26.25 26.25 26.25h52.5c14.391 0 26.25-11.859 26.25-26.25v-52.5c0-14.391-11.859-26.25-26.25-26.25z"/>
</svg>
